
* Extraordinary.Measures.2010.DVDRiP.XviD.OPTIONAL-NORDIC_SUB-Zen_Bud *

Format
                                 : AVI
File size                        : 1.37 GiB
Duration                         : 1h 40mn
Overall bit rate                 : 1 946 Kbps

Video

Format                           : MPEG-4 Visual
Codec ID/Hint                    : XviD
Duration                         : 1h 40mn
Bit rate                         : 1 805 Kbps
Width                            : 720 pixels
Height                           : 550 pixels
Display aspect ratio             : 1.862
Stream size                      : 1.27 GiB (93%)
Writing library                  : XviD 1.1.2 (UTC 2006-11-01)

Audio

Format                           : MPEG Audio
Codec ID/Hint                    : MP3
Duration                         : 1h 40mn
Bit rate                         : 128 Kbps
Channel(s)                       : 2 channels
Sampling rate                    : 48.0 KHz
Stream size                      : 92.3 MiB (7%)
Writing library                  : LAME3.98
Language                         : English


Text #1
Language                         : English

Text #2
Language                         : Danish

Text #3
Language                         : Finnish

Text #4
Language                         : Norwegian

Text #5
Language                         : Swedish


A drama centered on the efforts of John and Aileen Crowley 
 to find a researcher who might have a cure 
 for their two children's rare genetic disorder.